<?xml version="1.0" encoding="UTF-8" standalone="no"?>
<!-- Created with Inkscape (http://www.inkscape.org/) -->

<svg
   xmlns:dc="http://purl.org/dc/elements/1.1/"
   xmlns:cc="http://creativecommons.org/ns#"
   xmlns:rdf="http://www.w3.org/1999/02/22-rdf-syntax-ns#"
   xmlns:svg="http://www.w3.org/2000/svg"
   xmlns="http://www.w3.org/2000/svg"
   xmlns:xlink="http://www.w3.org/1999/xlink"
   xmlns:sodipodi="http://sodipodi.sourceforge.net/DTD/sodipodi-0.dtd"
   xmlns:inkscape="http://www.inkscape.org/namespaces/inkscape"
   width="210mm"
   height="297mm"
   viewBox="0 0 744.09448819 1052.3622047"
   id="svg2"
   version="1.1"
   inkscape:version="0.91 r13725"
   sodipodi:docname="drawing.svg">
  <defs
     id="defs4">
    <linearGradient
       inkscape:collect="always"
       id="linearGradient4368">
      <stop
         style="stop-color:#aaeeff;stop-opacity:1"
         offset="0"
         id="stop4370" />
      <stop
         style="stop-color:#80e5ff;stop-opacity:1"
         offset="1"
         id="stop4372" />
    </linearGradient>
    <linearGradient
       inkscape:collect="always"
       id="linearGradient4356">
      <stop
         style="stop-color:#26d3ff;stop-opacity:1"
         offset="0"
         id="stop4358" />
      <stop
         style="stop-color:#006680;stop-opacity:1"
         offset="1"
         id="stop4360" />
    </linearGradient>
    <linearGradient
       id="linearGradient4340"
       inkscape:collect="always">
      <stop
         id="stop4342"
         offset="0"
         style="stop-color:#00aad4;stop-opacity:1" />
      <stop
         id="stop4344"
         offset="1"
         style="stop-color:#006680;stop-opacity:1" />
    </linearGradient>
    <filter
       height="1.8627786"
       y="-0.43138931"
       width="1.8500907"
       x="-0.42504535"
       id="filter4376"
       inkscape:collect="always">
      <feGaussianBlur
         id="feGaussianBlur4378"
         stdDeviation="7.1569882"
         inkscape:collect="always" />
    </filter>
    <linearGradient
       y2="294.30774"
       x2="370.83606"
       y1="143.35844"
       x1="326.8587"
       gradientTransform="matrix(0.59531707,0,0,0.59531707,38.880544,96.039425)"
       gradientUnits="userSpaceOnUse"
       id="linearGradient4510"
       xlink:href="#linearGradient4368"
       inkscape:collect="always" />
    <linearGradient
       y2="189.95085"
       x2="344.51181"
       y1="143.35844"
       x1="326.8587"
       gradientTransform="matrix(0.59531707,0,0,0.59531707,38.880544,96.039425)"
       gradientUnits="userSpaceOnUse"
       id="linearGradient4512"
       xlink:href="#linearGradient4368"
       inkscape:collect="always" />
    <linearGradient
       y2="361.78888"
       x2="357.94235"
       y1="195.98453"
       x1="332.58401"
       gradientTransform="matrix(0.59531707,0,0,0.59531707,41.783664,86.168805)"
       gradientUnits="userSpaceOnUse"
       id="linearGradient4514"
       xlink:href="#linearGradient4340"
       inkscape:collect="always" />
    <linearGradient
       y2="361.78888"
       x2="357.94235"
       y1="195.98453"
       x1="332.58401"
       gradientTransform="matrix(0.59531707,0,0,0.59531707,41.783664,86.168805)"
       gradientUnits="userSpaceOnUse"
       id="linearGradient4516"
       xlink:href="#linearGradient4356"
       inkscape:collect="always" />
    <filter
       id="filter3112"
       color-interpolation-filters="sRGB"
       inkscape:menu-tooltip="Render in shades of gray by reducing saturation to zero"
       inkscape:menu="Color"
       height="1"
       width="1"
       y="0"
       x="0"
       inkscape:label="Desaturate">
      <feColorMatrix
         id="feColorMatrix3114"
         values="0"
         type="saturate" />
    </filter>
    <filter
       id="filter3177"
       color-interpolation-filters="sRGB"
       inkscape:menu-tooltip="Render in shades of gray by reducing saturation to zero"
       inkscape:menu="Color"
       height="1"
       width="1"
       y="0"
       x="0"
       inkscape:label="Desaturate">
      <feColorMatrix
         id="feColorMatrix3179"
         values="0"
         type="saturate" />
    </filter>
    <filter
       height="4.9677725"
       y="-1.9838862"
       width="1.2541254"
       x="-0.12706269"
       id="filter3926"
       inkscape:collect="always">
      <feGaussianBlur
         id="feGaussianBlur3928"
         stdDeviation="5.9497156"
         inkscape:collect="always" />
    </filter>
    <linearGradient
       y2="361.78888"
       x2="357.94235"
       y1="195.98453"
       x1="332.58401"
       gradientTransform="matrix(0.60337647,0,0,0.57506238,-36.929295,-45.797305)"
       gradientUnits="userSpaceOnUse"
       id="linearGradient3167"
       xlink:href="#linearGradient4356"
       inkscape:collect="always" />
    <linearGradient
       y2="361.78888"
       x2="357.94235"
       y1="195.98453"
       x1="332.58401"
       gradientTransform="matrix(0.60337647,0,0,0.57506238,-36.929295,-45.797305)"
       gradientUnits="userSpaceOnUse"
       id="linearGradient3170"
       xlink:href="#linearGradient4340"
       inkscape:collect="always" />
    <linearGradient
       y2="189.95085"
       x2="344.51181"
       y1="143.35844"
       x1="326.8587"
       gradientTransform="matrix(0.60337647,0,0,0.57506238,-39.871718,-36.262517)"
       gradientUnits="userSpaceOnUse"
       id="linearGradient3174"
       xlink:href="#linearGradient4368"
       inkscape:collect="always" />
    <linearGradient
       y2="294.30774"
       x2="370.83606"
       y1="143.35844"
       x1="326.8587"
       gradientTransform="matrix(0.60337647,0,0,0.57506238,-39.871718,-36.262517)"
       gradientUnits="userSpaceOnUse"
       id="linearGradient3177"
       xlink:href="#linearGradient4368"
       inkscape:collect="always" />
  </defs>
  <sodipodi:namedview
     id="base"
     pagecolor="#ffffff"
     bordercolor="#666666"
     borderopacity="1.0"
     inkscape:pageopacity="0.0"
     inkscape:pageshadow="2"
     inkscape:zoom="1.4"
     inkscape:cx="339.71499"
     inkscape:cy="589.01031"
     inkscape:document-units="px"
     inkscape:current-layer="g4518"
     showgrid="false"
     inkscape:window-width="1366"
     inkscape:window-height="705"
     inkscape:window-x="1592"
     inkscape:window-y="454"
     inkscape:window-maximized="1" />
  <metadata
     id="metadata7">
    <rdf:RDF>
      <cc:Work
         rdf:about="">
        <dc:format>image/svg+xml</dc:format>
        <dc:type
           rdf:resource="http://purl.org/dc/dcmitype/StillImage" />
        <dc:title></dc:title>
      </cc:Work>
    </rdf:RDF>
  </metadata>
  <g
     inkscape:label="Layer 1"
     inkscape:groupmode="layer"
     id="layer1">
    <g
       id="g3463"
       transform="translate(-105.33021,-252.98477)">
      <g
         transform="translate(170.58235,324.36655)"
         id="g3084">
        <path
           sodipodi:nodetypes="sssss"
           inkscape:connector-curvature="0"
           id="path3930"
           d="m 512.43404,149.98781 c 0,4.37643 -24.19664,4.22079 -55.22954,4.22079 -31.03291,0 -57.15056,0.15564 -57.15056,-4.22079 0,-4.37644 23.71637,-2.6336 54.74928,-2.6336 31.0329,0 57.63082,-1.74284 57.63082,2.6336 z"
           style="fill:#000000;fill-opacity:1;fill-rule:evenodd;stroke:none;filter:url(#filter3926)"
           transform="matrix(0.8502193,0,0,0.47020406,11.034577,381.71779)" />
        <g
           id="g4518"
           transform="matrix(0.89266728,0,0,0.85077793,77.563736,88.0429)">
          <g
             transform="matrix(1.1586707,0,0,1.1586707,79.356696,92.436744)"
             id="g4502">
            <path
               sodipodi:nodetypes="cccccc"
               inkscape:connector-curvature="0"
               id="path4456"
               d="m 208.346,229.49861 c -19.40131,-42.88367 28.39798,-48.01489 36.44038,-57.66779 23.10859,15.17885 56.21023,26.89073 35.37901,57.314 -2.35685,21.66081 14.80829,55.53236 -15.25821,61.23914 l -48.51816,0.057 C 201.96475,268.07745 210.091,249.53931 208.346,229.49858 Z"
               style="fill:url(#linearGradient4510);fill-opacity:1;stroke:none" />
            <path
               inkscape:connector-curvature="0"
               id="path4458"
               d="m 244.78583,171.83073 c -5.8631,7.0372 -32.85162,11.67641 -39.53277,30.28676 6.39784,23.65931 28.9662,41.15128 55.82958,41.15128 6.72527,0 13.17949,-1.09276 19.18037,-3.10681 -0.33905,-3.87302 -0.46542,-7.59078 -0.093,-11.01335 20.83121,-30.42328 -12.27556,-42.13903 -35.38416,-57.31788 z"
               style="fill:url(#linearGradient4512);fill-opacity:1;stroke:none" />
            <ellipse
               transform="matrix(0.84265815,0,0,0.84265815,-44.975866,75.384335)"
               id="path4460"
               style="fill:#ffffff;fill-opacity:1;fill-rule:evenodd;stroke:#26d3ff;stroke-width:0.1;stroke-linejoin:round;stroke-miterlimit:4;stroke-dasharray:none;stroke-opacity:1;filter:url(#filter4376)"
               cx="342.90448"
               cy="168.61571"
               rx="20.205811"
               ry="19.908667" />
            <path
               sodipodi:nodetypes="cccccccccccccccsccccccccccccccccccccccccccccccccccccccccccc"
               inkscape:connector-curvature="0"
               id="path4462"
               d="m 241.03027,145.01937 c -7.59611,4.15627 -2.94897,12.26506 1.39528,12.63189 l -0.0744,9.35764 c -3.37272,6.90279 -64.63041,21.68449 -41.54197,64.55469 l 0.093,15.53405 c 0,7e-5 -0.0187,-8e-5 -0.0186,0 l 0.11162,27.34738 c -0.0167,4.69193 1.48982,8.60703 4.96718,11.7017 3.31094,2.91165 7.35838,4.37379 12.16679,4.39046 l 41.83963,0 -0.11162,-43.42094 c -7e-5,-4.70851 -1.68471,-8.57854 -5.0788,-11.59008 -3.39422,-2.99477 -7.48672,-4.48341 -12.27842,-4.48347 -2.31273,6e-5 -4.67552,0.39206 -7.08799,1.19063 -1.91342,0.71548 -3.6882,1.78565 -5.30204,3.19982 -3.3942,2.9949 -5.07884,6.8914 -5.0788,11.6831 l 0,3.68353 -0.11163,0.20464 0,28.94729 -6.79033,-0.093 c -4.10961,10e-6 -8.42945,-1.81984 -8.44606,-5.41366 l -0.093,-26.86369 0,-0.48369 c 0.0268,-5.88082 0.081,-11.76666 0.16743,-17.63626 -16.54823,-36.42659 17.5758,-40.41239 35.01209,-55.66215 16.024,13.45166 52.7267,24.01957 34.0633,55.55053 -10e-6,-1e-5 0.0185,-1e-5 0.0186,0 0.0864,5.8696 0.14058,11.75543 0.16743,17.63626 l 0,0.48369 -0.093,26.86368 c -0.0166,3.59383 -4.33646,5.41368 -8.44607,5.41367 l -6.79033,0.093 -0.18604,10.58548 6.97637,0 c 4.80841,-0.0167 8.85585,-1.47881 12.1668,-4.39047 3.47736,-3.09466 4.98384,-7.00976 4.96717,-11.7017 l 0.11163,-27.34737 c 1.1e-4,-8e-5 -0.0186,7e-5 -0.0186,0 l 0.093,-14.95734 c 21.49252,-39.97842 -30.7862,-56.51413 -41.2071,-65.07559 l 0.24184,-9.153 c 6.86761,-3.92212 4.90075,-9.61943 0.89298,-12.72491 6.29872,11.34222 -13.1917,12.61471 -6.69732,-0.0558 z m 1.26505,69.05678 c -1.86351,-0.0165 -3.42368,0.61653 -4.68812,1.89758 -1.31445,1.31447 -1.99259,2.87465 -2.0092,4.68812 0.0166,1.81361 0.69475,3.37379 2.0092,4.68812 1.26444,1.28119 2.82461,1.9143 4.68812,1.89757 1.8634,0.0167 3.42358,-0.61638 4.68812,-1.89757 1.28107,-1.26442 1.91419,-2.82459 1.89758,-4.68812 0.0166,-1.86339 -0.61651,-3.42356 -1.89758,-4.68812 -1.26454,-1.28105 -2.82472,-1.91413 -4.68812,-1.89758 z m 0.20464,27.73805 c 4.10954,0.0167 6.15975,1.79146 6.17642,5.30204 l 0.11162,32.74244 -12.48306,0 -0.093,-32.74244 c -5e-5,-3.51058 2.09521,-5.28537 6.28803,-5.30204 z"
               style="font-style:normal;font-variant:normal;font-weight:normal;font-stretch:normal;font-size:171.71354675px;line-height:125%;font-family:'VIP Talin';-inkscape-font-specification:'VIP Talin';text-align:start;letter-spacing:0px;word-spacing:0px;writing-mode:lr-tb;text-anchor:start;fill:url(#linearGradient4514);fill-opacity:1;stroke:none" />
            <path
               inkscape:connector-curvature="0"
               id="path4464"
               d="m 241.03381,145.02286 c -7.59611,4.15627 -2.94898,12.26506 1.39527,12.63189 l -0.0744,9.35763 c -1.64894,3.37482 -17.14048,8.63547 -29.84027,18.13857 -0.75895,3.93402 -1.27456,7.95127 -1.5441,12.05517 8.26176,-9.60841 23.78797,-14.6444 33.80284,-23.4034 16.02401,13.45166 52.72671,24.01957 34.0633,55.55053 0,-2e-5 0.0186,-1e-5 0.0186,0 0.0864,5.8696 0.14058,11.75543 0.16743,17.63625 l 0,0.4837 -0.093,26.86368 c -0.0166,3.59382 -4.33645,5.41368 -8.44606,5.41367 l -6.79033,0.093 -0.13023,7.90656 c 2.35008,1.00213 4.75082,1.9077 7.19962,2.67893 4.6854,-0.0717 8.64143,-1.53565 11.88773,-4.39047 3.47736,-3.09466 4.98385,-7.00977 4.96718,-11.7017 l 0.11162,-27.34738 c 1.2e-4,-7e-5 -0.0186,8e-5 -0.0186,0 l 0.093,-14.95733 c 21.49252,-39.97843 -30.7862,-56.51413 -41.20711,-65.0756 l 0.24185,-9.15299 c 6.8676,-3.92212 4.90075,-9.61943 0.89298,-12.72491 6.29872,11.34222 -13.1917,12.61468 -6.69732,-0.0558 z m 1.26505,69.05678 c -1.86351,-0.0165 -3.42368,0.61652 -4.68812,1.89758 -1.31445,1.31447 -1.99259,2.87464 -2.0092,4.68812 0.0166,1.81361 0.69475,3.37378 2.0092,4.68812 1.26444,1.28119 2.82461,1.9143 4.68812,1.89757 1.8634,0.0167 3.42358,-0.61638 4.68812,-1.89757 1.28107,-1.26442 1.91418,-2.8246 1.89757,-4.68812 0.0166,-1.86339 -0.6165,-3.42356 -1.89757,-4.68812 -1.26454,-1.28106 -2.82472,-1.91413 -4.68812,-1.89758 z m 0.20464,16.96654 c -2.31273,6e-5 -4.67553,0.39206 -7.088,1.19063 -1.91341,0.71548 -3.68819,1.78565 -5.30204,3.19982 -3.39419,2.9949 -5.07883,6.8914 -5.0788,11.6831 l 0,3.68352 -0.11162,0.20464 0,3.08821 c 3.29984,5.3069 7.11041,10.21657 11.34823,14.64108 l -0.0558,-21.61745 c -5e-5,-3.51058 2.09521,-5.28537 6.28804,-5.30204 4.10954,0.0167 6.15974,1.79146 6.17641,5.30204 l 0.11162,32.38897 c 3.54911,2.49462 7.26819,4.709 11.1622,6.6043 l -0.093,-38.99327 c -6e-5,-4.70851 -1.6847,-8.57854 -5.0788,-11.59008 -3.39421,-2.99477 -7.48672,-4.48341 -12.27841,-4.48347 z"
               style="font-style:normal;font-variant:normal;font-weight:normal;font-stretch:normal;font-size:171.71354675px;line-height:125%;font-family:'VIP Talin';-inkscape-font-specification:'VIP Talin';text-align:start;letter-spacing:0px;word-spacing:0px;writing-mode:lr-tb;text-anchor:start;fill:url(#linearGradient4516);fill-opacity:1;stroke:none" />
            <path
               sodipodi:nodetypes="ccc"
               inkscape:connector-curvature="0"
               id="path4466"
               d="m 246.20155,176.78389 c 9.36391,10.3726 44.4971,19.89337 32.19489,44.93134 2.38802,-16.66129 -27.57201,-23.57421 -32.19489,-44.93134 z"
               style="fill:#ffffff;stroke:none" />
          </g>
          <g
             id="g4468"
             transform="matrix(0.59531707,0,0,0.59531707,10.84584,156.2356)">
            <g
               transform="translate(-4.0024912,6.6708187)"
               id="g4470"
               style="font-style:normal;font-variant:normal;font-weight:800;font-stretch:normal;font-size:106.96457672px;line-height:125%;font-family:'Kufyan Arabic Heavy';-inkscape-font-specification:'Kufyan Arabic Heavy, Ultra-Bold';text-align:start;letter-spacing:0px;word-spacing:0px;writing-mode:lr-tb;text-anchor:start;fill:#004455;fill-opacity:1;stroke:none">
              <path
                 style="fill:#004455"
                 inkscape:connector-curvature="0"
                 id="path4472"
                 d="m 472.16953,383.92743 11.75148,0 0,-76.82856 -11.75148,0.99235 z" />
              <path
                 style="fill:#004455"
                 inkscape:connector-curvature="0"
                 id="path4474"
                 d="m 454.62066,383.92743 9.55787,-9.2445 0,-67.58406 -11.69925,0.99235 0,64.55479 -14.78075,0 0,11.28142 z" />
              <path
                 style="fill:#004455"
                 inkscape:connector-curvature="0"
                 id="path4476"
                 d="m 432.84125,331.48972 c -1.494,-0.45151 -3.10221,-0.81494 -4.82463,-1.09028 -1.72251,-0.27523 -3.52657,-0.41669 -5.41221,-0.42436 -4.36597,-0.0338 -8.94663,0.91599 -13.74198,2.84937 -4.7954,1.93348 -8.88858,5.05367 -12.27957,9.36056 -3.39101,4.30698 -5.16292,10.00378 -5.31573,17.09043 0.008,2.3427 0.34492,4.656 1.01193,6.9399 0.667,2.28394 1.618,4.42749 2.853,6.43067 l -10.91582,0 0,11.28142 55.51921,0 0,-11.28142 -6.8942,0 z m -11.22919,41.62635 c -1.00979,0.10447 -1.91509,0.1567 -2.7159,0.15668 -5.71772,-0.17054 -9.83998,-1.87614 -12.3668,-5.11679 -2.52685,-3.24061 -3.62311,-6.99292 -3.28878,-11.25693 0.3343,-4.26396 1.93435,-8.01627 4.80015,-11.25694 2.86576,-3.24059 6.83243,-4.94619 11.90001,-5.11679 0.55707,-0.009 1.11418,0.009 1.67132,0.0522 z m -7.36426,-62.72679 c -1.99887,0.0588 -3.62884,0.76392 -4.88992,2.11527 -1.26113,1.35149 -1.91181,2.99669 -1.95205,4.93562 0.0402,1.93906 0.69092,3.58426 1.95205,4.93562 1.26108,1.35148 2.89105,2.05657 4.88992,2.11527 2.10327,-0.0587 3.81158,-0.76379 5.12495,-2.11527 1.3133,-1.35136 1.9901,-2.99656 2.0304,-4.93562 -0.0403,-1.93893 -0.7171,-3.58413 -2.0304,-4.93562 -1.31337,-1.35135 -3.02168,-2.05644 -5.12495,-2.11527 z" />
              <path
                 style="fill:#004455"
                 inkscape:connector-curvature="0"
                 id="path4478"
                 d="m 368.33867,331.54195 0,53.48228 c -0.26213,4.59646 -2.19266,7.89202 -5.79159,9.88672 -3.59897,1.99467 -7.29367,3.20883 -11.08412,3.64247 -3.79046,0.43362 -6.104,0.60707 -6.94062,0.52036 l 9.2445,11.07251 c 7.62023,-0.6171 13.29446,-2.38321 17.02272,-5.29833 3.7282,-2.91516 6.16812,-6.2017 7.31976,-9.85963 1.15158,-3.65796 1.67258,-6.90968 1.563,-9.75518 l 0,-1.30572 6.68529,0 0,-11.28142 -6.68529,0 0,-42.20087 z" />
              <path
                 style="fill:#004455"
                 inkscape:connector-curvature="0"
                 id="path4480"
                 d="m 326.55564,383.92743 11.75147,0 0,-76.82856 -11.75147,0.99235 z" />
              <path
                 style="fill:#004455"
                 inkscape:connector-curvature="0"
                 id="path4482"
                 d="m 304.67177,383.92743 9.55787,-9.2445 0,-44.29002 -11.64702,1.14904 0,41.10406 -14.88521,0 0,11.28142 z m 13.73618,-71.34454 -5.90186,0 c -2.7812,-0.35791 -4.83118,-0.99989 -6.14994,-1.92593 -1.31879,-0.9259 -2.29808,-2.02488 -2.93787,-3.29695 0.87591,-1.12066 2.04888,-2.09125 3.51892,-2.91175 1.47,-0.82035 2.99551,-1.50368 4.57654,-2.04998 1.77576,-0.62667 3.65599,-1.14895 5.64071,-1.56687 l -0.67897,-7.67763 c -1.68332,0.20248 -3.29153,0.56808 -4.82463,1.0968 -1.53316,0.52891 -2.9194,1.10343 -4.15872,1.72355 -1.4102,0.68777 -2.76814,1.45379 -4.07385,2.29807 -2.223,1.94778 -3.67888,3.7845 -4.36763,5.51014 -0.68878,1.7258 -0.90422,3.24914 -0.64633,4.57002 0.16538,1.51471 0.77471,2.92488 1.828,4.23053 l -5.90185,0 -0.94012,7.15535 25.0176,0 z" />
              <path
                 style="fill:#004455"
                 inkscape:connector-curvature="0"
                 id="path4484"
                 d="m 289.73434,383.92743 0,-11.28142 -6.21523,0 c 0.61919,-7.22755 -0.55563,-14.01793 -3.52448,-20.37117 -2.96911,-6.35318 -7.26992,-11.52253 -12.90245,-15.50808 -5.63276,-3.98546 -12.13492,-6.04043 -19.50648,-6.16493 -5.1207,-0.0369 -10.23476,1.22525 -15.34221,3.78659 -5.10762,2.56143 -9.8822,6.64398 -14.32375,12.24765 l 0,-16.24316 -11.54256,1.14904 0,63.40576 -36.03787,0 c -1.66264,-0.0609 -3.14246,-0.46137 -4.43945,-1.20127 -1.14252,-0.60064 -2.14793,-1.57993 -3.01621,-2.93787 -0.86832,-1.35795 -1.32532,-3.25124 -1.37101,-5.67988 l 0,-23.34627 -11.33365,1.20126 0,22.09278 c -0.0522,3.96939 0.57451,7.52094 1.88024,10.65468 1.06198,2.74961 2.97268,5.17607 5.73211,7.27939 2.75941,2.10327 6.73314,3.21096 11.92122,3.32305 l 38.806,0 9.40118,-9.24449 0,-13.16166 z m -45.23014,-73.277 c -2.02614,0.0458 -3.68005,0.72474 -4.96174,2.03692 -1.28187,1.31232 -1.94343,2.98364 -1.98469,5.01396 0.0413,1.93689 0.70282,3.57339 1.98469,4.90951 1.28169,1.33625 2.9356,2.03263 4.96174,2.08915 2.05532,-0.0565 3.74187,-0.7529 5.05966,-2.08915 1.31759,-1.33612 1.99874,-2.97262 2.04345,-4.90951 -0.0447,-2.03032 -0.72586,-3.70164 -2.04345,-5.01396 -1.31779,-1.31218 -3.00434,-1.99115 -5.05966,-2.03692 z m 2.97704,32.01625 c 6.34134,-0.0663 11.83406,2.29919 16.47818,7.09659 4.64389,4.79746 7.21181,12.42503 7.70375,22.88274 l -53.74343,0 c 0.63103,-9.38375 3.88662,-16.70448 9.76679,-21.96221 5.88,-5.25766 12.47823,-7.93003 19.79471,-8.01712 z" />
            </g>
            <g
               style="font-style:normal;font-variant:normal;font-weight:800;font-stretch:normal;font-size:106.96457672px;line-height:125%;font-family:'Kufyan Arabic Heavy';-inkscape-font-specification:'Kufyan Arabic Heavy, Ultra-Bold';text-align:start;letter-spacing:0px;word-spacing:0px;writing-mode:lr-tb;text-anchor:start;fill:#004455;fill-opacity:1;stroke:none"
               id="g4486"
               transform="translate(-4.0024912,6.6708187)">
              <path
                 id="path4488"
                 transform="translate(4.0024912,-6.6708187)"
                 d="m 312.46875,299.8125 c -1.68332,0.20248 -3.2794,0.56503 -4.8125,1.09375 -1.53316,0.52891 -2.91693,1.12988 -4.15625,1.75 -1.4102,0.68777 -2.78804,1.43697 -4.09375,2.28125 -2.223,1.94778 -3.655,3.80561 -4.34375,5.53125 -0.68878,1.7258 -0.91414,3.24162 -0.65625,4.5625 0.16538,1.51471 0.75921,2.9131 1.8125,4.21875 l -5.90625,0 -0.9375,7.15625 25.03125,0 0,-7.15625 -5.90625,0 c -2.7812,-0.35791 -4.83749,-1.01146 -6.15625,-1.9375 -1.31879,-0.9259 -2.29771,-2.00918 -2.9375,-3.28125 0.87591,-1.12066 2.06121,-2.08575 3.53125,-2.90625 1.47,-0.82035 2.98147,-1.5162 4.5625,-2.0625 1.77576,-0.62667 3.67153,-1.14458 5.65625,-1.5625 l -0.6875,-7.6875 z m 21.84375,13.96875 -11.75,0.96875 0,70.5 c 3.95149,-0.0426 7.85384,-0.1513 11.75,-0.28125 l 0,-71.1875 z m 125.875,0 -11.71875,0.96875 0,51.90625 c 4.02304,-1.28779 7.92462,-2.63115 11.71875,-4.03125 l 0,-48.84375 z m 19.71875,0 -11.75,0.96875 0,44.78125 c 4.06738,-1.6589 8.00298,-3.3689 11.75,-5.15625 l 0,-40.59375 z M 410.25,317.0625 c -1.99887,0.0588 -3.64517,0.77365 -4.90625,2.125 -1.26113,1.35149 -1.89726,2.99857 -1.9375,4.9375 0.0402,1.93906 0.67637,3.55489 1.9375,4.90625 1.26108,1.35148 2.90738,2.0663 4.90625,2.125 2.10327,-0.0587 3.81163,-0.77352 5.125,-2.125 1.3133,-1.35136 1.99095,-2.96719 2.03125,-4.90625 -0.0403,-1.93893 -0.71795,-3.58601 -2.03125,-4.9375 -1.31337,-1.35135 -3.02173,-2.06617 -5.125,-2.125 z m -169.75,0.25 c -2.02614,0.0458 -3.68706,0.71907 -4.96875,2.03125 -1.28187,1.31232 -1.92749,3.00093 -1.96875,5.03125 0.0413,1.93689 0.68688,3.57013 1.96875,4.90625 1.28169,1.33625 2.94261,2.03723 4.96875,2.09375 2.05532,-0.0565 3.74471,-0.7575 5.0625,-2.09375 1.31759,-1.33612 1.98654,-2.96936 2.03125,-4.90625 -0.0447,-2.03032 -0.71366,-3.71893 -2.03125,-5.03125 -1.31779,-1.31218 -3.00718,-1.98548 -5.0625,-2.03125 z m 178.09375,19.34375 c -4.36597,-0.0338 -8.9234,0.91037 -13.71875,2.84375 -4.7954,1.93348 -8.89026,5.03686 -12.28125,9.34375 -3.39101,4.30698 -5.19094,10.0071 -5.34375,17.09375 0.008,2.3427 0.36424,4.6536 1.03125,6.9375 0.667,2.28394 1.60875,4.43432 2.84375,6.4375 l -8.78125,0 -6.6875,0 0,-42.1875 -11.3125,1.09375 0,44.875 c 14.24191,-1.33192 27.96796,-3.27787 41,-5.71875 -1.08684,-0.7094 -2.03155,-1.56093 -2.8125,-2.5625 -2.52685,-3.24061 -3.61558,-6.98599 -3.28125,-11.25 0.3343,-4.26396 1.91545,-8.00933 4.78125,-11.25 2.86576,-3.24059 6.83867,-4.9544 11.90625,-5.125 0.55707,-0.009 1.13036,0.0193 1.6875,0.0625 l 0,27.65625 c 3.81009,-0.8384 7.54673,-1.72749 11.21875,-2.65625 l 0,-34.09375 c -1.494,-0.45151 -3.12133,-0.81841 -4.84375,-1.09375 -1.72251,-0.27523 -3.52061,-0.39858 -5.40625,-0.40625 z m -204.6875,0.40625 -11.53125,1.15625 0,33.40625 c 3.95529,1.03124 8.00478,2.01222 12.125,2.9375 1.2835,-7.14049 4.33976,-12.88416 9.1875,-17.21875 5.88,-5.25766 12.46477,-7.91291 19.78125,-8 6.34134,-0.0663 11.85588,2.29635 16.5,7.09375 4.64389,4.79746 7.19556,12.41729 7.6875,22.875 l -28.3125,0 c 20.94288,3.35683 43.45299,5.37081 66.9375,5.84375 l 3.9375,-3.8125 0,-44.28125 -11.625,1.15625 0,41.09375 -12.875,0 -2.03125,0 -4.15625,0 c 0.61919,-7.22755 -0.5624,-14.02176 -3.53125,-20.375 -2.96911,-6.35318 -7.27372,-11.51445 -12.90625,-15.5 -5.63276,-3.98546 -12.12844,-6.03175 -19.5,-6.15625 -5.1207,-0.0369 -10.2363,1.21991 -15.34375,3.78125 -5.10762,2.56143 -9.9022,6.64633 -14.34375,12.25 l 0,-16.25 z"
                 style="fill:#00677e;fill-opacity:1"
                 inkscape:connector-curvature="0" />
            </g>
          </g>
        </g>
      </g>
    </g>
  </g>
</svg>
